<svg xmlns="http://www.w3.org/2000/svg" viewBox="0 0 108 42"><path d="M25.86,16.28c-.91-.94-2.08-1.61-3.39-1.91V0c6.56,.46,12.31,3.95,15.84,9.08l-12.45,7.2Zm-1.02,4.72c0-2.12-1.72-3.85-3.84-3.85s-3.84,1.73-3.84,3.85,1.72,3.85,3.84,3.85,3.84-1.73,3.84-3.85Zm-5.58-6.55V.02C12.76,.56,7.09,4.07,3.62,9.2l12.43,7.2c.86-.92,1.96-1.6,3.21-1.94Zm-5.02,6.55c0-.62,.09-1.23,.25-1.8L2.03,11.99C.73,14.72,0,17.78,0,21s.74,6.32,2.05,9.07l12.45-7.21c-.17-.59-.26-1.21-.26-1.86ZM3.66,32.85c3.48,5.1,9.13,8.59,15.61,9.13v-14.43c-1.23-.33-2.32-.99-3.17-1.89l-12.44,7.2Zm18.82-5.23v14.38c6.54-.46,12.27-3.92,15.8-9.03l-12.45-7.21c-.9,.91-2.06,1.57-3.35,1.86Zm19.66-11.23c.88,1.08,1.37,2.87,1.37,5.01,0,2.27-.7,4.15-1.95,5.23-.99,.84-2.55,1.32-4.4,1.32-2.49,0-4.48-.8-5.51-2.21-.82-1.12-1.23-2.61-1.23-4.45,0-2.47,.66-4.39,1.89-5.43,1.03-.9,2.71-1.4,4.66-1.4,2.29,0,4.18,.7,5.17,1.93Zm-1.73,4.83c0-3.11-1.05-4.51-3.42-4.51-1.25,0-2.25,.46-2.81,1.28-.44,.66-.66,1.74-.66,3.19,0,3.11,1.07,4.53,3.46,4.53s3.42-1.42,3.42-4.49Zm14.01,3.25l-5.29-9.91h-3.6v13.31h2.69v-9.75l5.43,9.75h3.46V14.55h-2.69v9.91Zm7.42-9.26c-1.77,.92-2.79,3.09-2.79,6.02,0,2.45,.66,4.35,1.89,5.43,1.03,.9,2.09,1.2,4.28,1.2h4.62v-2.37h-4.06c-1.11,0-1.93-.22-2.47-.64-.74-.6-1.13-1.99-1.13-3.87,0-1.44,.26-2.49,.72-3.03,.62-.7,1.49-1.02,2.79-1.02h4.16v-2.37h-4.5c-1.37,0-2.71,.26-3.5,.66Zm11.42,.52c-1.41,1.28-2.13,3.09-2.13,5.41s.68,4.19,1.89,5.37c1.01,1,2.39,1.36,5.09,1.36h3.68v-2.37h-3.56c-2.73,0-3.68-.74-3.9-3.05h7.46v-2.37h-7.46c.08-1.26,.18-1.6,.58-2.15,.62-.78,1.21-.96,3.2-.98h3.68v-2.37h-4.78c-1.85,0-2.79,.3-3.76,1.18Zm21.35-.04c.82,.86,1.25,1.97,1.25,3.19,0,1.36-.52,2.63-1.39,3.41-.78,.7-1.53,.92-3.08,.92h-4.54v4.65h-2.83V14.55h6.63c2.27,0,3.1,.24,3.96,1.14Zm-1.85,3.09c0-.86-.34-1.48-.94-1.72-.24-.1-.58-.14-1.07-.14h-3.9v3.91h3.84c.72,0,1.15-.1,1.45-.34,.38-.3,.62-.96,.62-1.72Zm3.82-4.23v2.37h4.24v10.93h2.82v-10.93h4.38v-2.37h-11.44Z"/></svg>
