<svg id="uuid-ba9e5280-aa34-4482-8bb7-9c68b0284de0" xmlns="http://www.w3.org/2000/svg" viewBox="0 0 76 50"><path d="m19.14,18.97c-1.09.2-1.31.37-1.71,1.43-2.24,6.03-2.44,6.62-4.19,11.97h-.31c-1.05-2.91-2.22-5.95-3.29-8.67l-3.16,8.67h-.31c-1.25-3.69-2.73-7.5-3.94-10.95-.68-1.95-1.09-2.44-2.14-2.46v-.39h5.01v.39c-1.05.02-1.31.2-1.31.64,0,.25.08.57.23.96l2.96,7.71,2.14-5.8-.57-1.54c-.68-1.8-.93-1.95-2.1-1.97v-.39h5.44v.39c-1.03.02-1.58.29-1.58.72,0,.23.17.7.35,1.19l2.94,7.46,2.59-6.95c.23-.64.35-1.15.35-1.58,0-.55-.39-.82-1.44-.84v-.39h4.05v.39Zm13.6,13.18v-.39c.74,0,.88-.04,1.13-.18.16-.08.29-.31.29-.49,0-.31-.14-.86-.39-1.43l-.84-1.93h-5.38l-.95,2.34c-.1.27-.19.61-.19.86,0,.63.45.84,1.44.84v.39h-4.09v-.39c1.19-.12,1.38-.55,2.59-3.42l4.23-10.01h.41l5.05,11.54c.57,1.33.86,1.76,1.93,1.89v.39h-5.24Zm-2.49-10.91l-2.36,5.64h4.74l-2.38-5.64Zm26.81-2.28c-.82.02-1.29.35-1.89,1.87l-4.56,11.54h-.31l-5.01-11.15c-.88-1.99-1.19-2.24-2.22-2.26v-.39h5.44v.39l-.57.04c-.66.04-.93.23-.93.64,0,.33.19.82.8,2.19l3.12,7.01,3.02-7.57c.25-.61.39-1.13.39-1.48,0-.8-.66-.76-1.48-.84v-.39h4.19v.39Zm17.99,13.18h-11.07v-.39c1.58-.1,1.79-.37,1.79-1.95v-8.94c0-1.52-.25-1.82-1.79-1.91v-.39h10.89l.08,2.93h-.51c-.31-1.85-.78-2.15-3.16-2.15h-2.69c-.57,0-.72.08-.72.74v4.51h3.1c1.77,0,2.07-.35,2.32-1.97h.47v4.8h-.47c-.25-1.72-.55-1.99-2.32-1.99h-3.1v4.98c0,.86.55.96,2.07.96h.74c2.94,0,3.82-.53,4.74-2.71h.58l-.95,3.47Z"/><path d="m48.33,43.45c-4.66-.75-9.16-1.75-13.61-3.3-5.78-2.02-11.51-3.8-17.69-3.85C10.92,36.25,3.91,37.52,0,40.54c0,0,8.77-4.24,24.65,1.51,4.55,1.65,9.21,3,13.95,4.02,10.08,2.18,21.35,2.13,30.81-2.37,2.09-.99,4.35-2.23,5.96-3.93,0,0-11.84,6.11-27.05,3.68Z" fill="#a30000"/><path d="m48.33,6.55c-4.66.75-9.16,1.75-13.61,3.3-5.78,2.02-11.51,3.8-17.69,3.85C10.92,13.75,3.91,12.48,0,9.46,0,9.46,8.77,13.7,24.65,7.95c4.55-1.65,9.21-3,13.95-4.02,10.08-2.18,21.35-2.13,30.81,2.37,2.09.99,4.35,2.23,5.96,3.93,0,0-11.84-6.11-27.05-3.68Z" fill="#a30000"/></svg>
